<svg width="432" height="420" viewBox="0 0 432 420" fill="none" xmlns="http://www.w3.org/2000/svg">
<g filter="url(#filter0_d_9_72)">
<path d="M401.099 203.069C386.489 170.839 356.169 151.289 333.249 125.699C311.879 101.859 302.769 70.0887 281.589 46.4387C255.099 16.8787 212.269 10.3687 174.709 15.6787C163.181 17.3124 151.832 20.0209 140.809 23.7687C129.973 27.4459 119.488 32.0844 109.479 37.6287C76.4187 55.9887 51.7287 82.4487 36.9787 117.289C24.4287 146.939 19.5587 179.639 24.6787 211.569C33.0987 264.109 65.9587 311.569 110.419 340.819C154.879 370.069 210.099 381.449 262.989 375.649C305.749 370.969 348.579 354.429 377.549 322.649C406.519 290.869 418.829 242.249 401.099 203.069Z" fill="#2192FF"/>
<path d="M267.569 46.2087C247.709 43.3787 248.569 63.0987 248.569 63.0987L258.569 64.2187C256.419 58.7387 259.699 52.9587 266.149 53.2787C272.599 53.5987 271.539 61.5687 268.099 64.8187C265.099 67.6687 260.499 71.5987 260.499 71.5987L258.199 81.4087L267.519 83.2787L268.419 73.9687C272.028 72.04 275.19 69.372 277.699 66.1387C279.779 63.4787 282.939 48.4087 267.569 46.2087Z" fill="#D35D57"/>
<path d="M262.099 86.4187C258.959 85.7887 256.039 87.1387 255.579 89.4187C255.119 91.6987 257.289 94.0787 260.429 94.7087C263.569 95.3387 266.429 93.9987 266.939 91.7087C267.449 89.4187 265.189 87.0487 262.099 86.4187Z" fill="#D35D57"/>
<path d="M288.679 90.7887C278.309 83.6687 273.319 95.0087 273.319 95.0087L278.659 98.4287C278.969 94.7487 282.419 92.4287 285.959 94.4287C289.499 96.4287 286.639 100.559 283.809 101.429C281.319 102.199 277.639 103.129 277.639 103.129L273.639 107.999L278.359 111.649L281.459 106.649C284.022 106.568 286.541 105.948 288.849 104.829C290.739 103.899 296.709 96.3087 288.679 90.7887Z" fill="#D35D57"/>
<path d="M274.389 111.859C272.799 110.629 270.779 110.579 269.889 111.739C268.999 112.899 269.549 114.839 271.139 116.059C272.729 117.279 274.739 117.349 275.639 116.189C276.539 115.029 275.969 113.089 274.389 111.859Z" fill="#D35D57"/>
<path d="M227.409 389.919C227.364 389.919 227.32 389.91 227.28 389.892C227.24 389.874 227.203 389.847 227.174 389.814C227.145 389.781 227.123 389.742 227.11 389.7C227.097 389.657 227.093 389.613 227.099 389.569L225.929 351.659C225.931 351.575 225.964 351.495 226.021 351.435C226.078 351.374 226.155 351.336 226.239 351.329C226.281 351.327 226.323 351.334 226.362 351.349C226.401 351.364 226.437 351.387 226.468 351.415C226.499 351.444 226.523 351.479 226.541 351.517C226.558 351.555 226.567 351.597 226.569 351.639L227.719 389.569C227.721 389.61 227.716 389.652 227.702 389.691C227.688 389.73 227.667 389.767 227.639 389.797C227.611 389.828 227.577 389.853 227.539 389.87C227.501 389.888 227.46 389.897 227.419 389.899L227.409 389.919Z" fill="#383D84"/>
<path d="M227.219 383.769H222.329C222.288 383.769 222.248 383.761 222.21 383.745C222.172 383.73 222.138 383.707 222.109 383.678C222.081 383.649 222.058 383.615 222.042 383.577C222.027 383.54 222.019 383.499 222.019 383.459L220.909 357.569C220.906 357.527 220.912 357.485 220.925 357.445C220.939 357.405 220.96 357.368 220.988 357.336C221.016 357.305 221.05 357.279 221.088 357.261C221.125 357.242 221.167 357.231 221.209 357.229C221.294 357.228 221.376 357.26 221.439 357.317C221.502 357.375 221.541 357.454 221.549 357.539L222.639 383.169H227.219C227.304 383.169 227.385 383.202 227.445 383.262C227.505 383.322 227.539 383.404 227.539 383.489C227.527 383.566 227.488 383.636 227.43 383.687C227.371 383.738 227.296 383.767 227.219 383.769Z" fill="#383D84"/>
<path d="M276.029 381.209C273.349 381.226 270.751 380.291 268.699 378.569C260.609 371.949 259.299 355.429 259.249 354.729C259.255 354.653 259.288 354.582 259.341 354.528C259.395 354.474 259.466 354.441 259.542 354.435C259.618 354.429 259.694 354.45 259.755 354.495C259.817 354.54 259.861 354.605 259.879 354.679C259.879 354.849 261.229 371.679 269.109 378.079C270.272 379.053 271.627 379.771 273.087 380.186C274.546 380.601 276.077 380.705 277.579 380.489C277.62 380.483 277.662 380.486 277.703 380.497C277.743 380.508 277.781 380.528 277.814 380.554C277.846 380.58 277.873 380.613 277.893 380.65C277.913 380.686 277.925 380.727 277.929 380.769C277.934 380.809 277.932 380.851 277.921 380.891C277.911 380.93 277.892 380.968 277.867 381C277.842 381.033 277.811 381.06 277.775 381.08C277.739 381.101 277.7 381.114 277.659 381.119C277.118 381.182 276.573 381.213 276.029 381.209Z" fill="#383D84"/>
<path d="M177.199 382.109C177.153 382.108 177.108 382.099 177.067 382.08C177.025 382.061 176.989 382.033 176.959 381.999C176.928 381.97 176.904 381.935 176.887 381.896C176.87 381.857 176.862 381.816 176.862 381.774C176.862 381.732 176.87 381.69 176.887 381.651C176.904 381.613 176.928 381.578 176.959 381.549C177.039 381.469 185.459 373.939 183.829 356.209C183.825 356.167 183.829 356.124 183.842 356.084C183.854 356.044 183.874 356.006 183.901 355.974C183.928 355.941 183.961 355.914 183.998 355.895C184.036 355.875 184.077 355.863 184.119 355.859C184.161 355.855 184.203 355.859 184.243 355.872C184.284 355.884 184.321 355.904 184.354 355.931C184.386 355.958 184.413 355.991 184.433 356.029C184.453 356.066 184.465 356.107 184.469 356.149C186.129 374.229 177.469 381.949 177.369 382.029C177.321 382.072 177.262 382.1 177.199 382.109Z" fill="#383D84"/>
<path d="M308.329 310.079C305.388 310.083 302.52 309.16 300.132 307.443C297.745 305.725 295.959 303.299 295.029 300.509L264.589 209.729C264.003 207.983 263.767 206.14 263.894 204.303C264.02 202.467 264.508 200.673 265.328 199.025C266.147 197.377 267.284 195.906 268.672 194.697C270.061 193.488 271.673 192.564 273.419 191.979C275.164 191.393 277.007 191.157 278.844 191.284C280.681 191.41 282.474 191.898 284.122 192.718C285.771 193.537 287.241 194.674 288.45 196.062C289.659 197.451 290.583 199.063 291.169 200.809L321.619 291.569C322.333 293.678 322.534 295.926 322.204 298.128C321.875 300.33 321.026 302.422 319.726 304.23C318.427 306.038 316.715 307.51 314.733 308.523C312.751 309.537 310.555 310.063 308.329 310.059V310.079Z" fill="#EFAD9C"/>
<path d="M295.919 289.899L333.289 209.269C334.173 207.04 335.907 205.253 338.109 204.302C340.31 203.351 342.8 203.314 345.029 204.199C347.258 205.083 349.044 206.817 349.995 209.019C350.946 211.22 350.983 213.71 350.099 215.939L322.009 300.249C320.831 303.783 318.298 306.704 314.966 308.37C311.635 310.037 307.778 310.311 304.244 309.134C300.71 307.956 297.788 305.423 296.122 302.091C294.456 298.76 294.181 294.903 295.359 291.369C295.509 290.869 295.709 290.369 295.919 289.899Z" fill="#EFAD9C"/>
<path d="M333.099 213.909C331.549 209.229 336.939 203.699 341.329 201.279C349.179 196.969 368.519 194.669 369.459 196.279C370.399 197.889 359.029 202.979 359.029 202.979C359.029 202.979 367.599 202.749 370.719 203.979C370.719 203.979 379.259 193.979 381.079 194.569C382.899 195.159 379.339 201.319 379.339 201.319C379.339 201.319 387.649 195.789 388.809 196.909C389.969 198.029 378.209 208.339 375.489 209.999C372.769 211.659 356.749 218.779 347.909 219.579C339.069 220.379 334.549 218.399 333.099 213.909Z" fill="#EFAD9C"/>
<path d="M364.989 214.169C364.949 214.169 364.911 214.161 364.874 214.145C364.838 214.13 364.806 214.107 364.779 214.079C364.732 214.029 364.705 213.962 364.705 213.894C364.705 213.825 364.732 213.759 364.779 213.709C367.229 211.639 371.089 207.989 370.989 206.999C370.986 206.98 370.979 206.963 370.968 206.947C370.958 206.932 370.945 206.919 370.929 206.909C369.929 206.379 364.159 209.209 360.769 211.129H360.699H360.619C358.121 210.949 355.611 211.114 353.159 211.619C353.126 211.628 353.091 211.63 353.058 211.625C353.024 211.62 352.992 211.608 352.963 211.591C352.934 211.573 352.909 211.549 352.889 211.521C352.869 211.494 352.856 211.462 352.849 211.429C352.84 211.395 352.838 211.36 352.842 211.326C352.847 211.292 352.859 211.258 352.876 211.229C352.894 211.199 352.917 211.173 352.945 211.152C352.973 211.132 353.005 211.117 353.039 211.109C355.517 210.596 358.054 210.425 360.579 210.599C362.239 209.669 369.629 205.599 371.169 206.419C371.265 206.464 371.347 206.535 371.406 206.623C371.466 206.711 371.501 206.813 371.509 206.919C371.669 208.479 366.209 213.159 365.119 214.079C365.085 214.121 365.04 214.152 364.989 214.169Z" fill="#B56757"/>
<path d="M368.429 207.399C368.371 207.402 368.314 207.384 368.269 207.349C368.241 207.328 368.217 207.302 368.199 207.272C368.182 207.242 368.17 207.209 368.165 207.174C368.161 207.14 368.163 207.105 368.172 207.071C368.181 207.037 368.197 207.006 368.219 206.979L370.299 204.139C370.319 204.11 370.344 204.085 370.374 204.067C370.403 204.048 370.436 204.036 370.471 204.03C370.505 204.024 370.541 204.026 370.575 204.034C370.609 204.043 370.641 204.058 370.669 204.079C370.725 204.121 370.762 204.183 370.773 204.252C370.784 204.321 370.768 204.391 370.729 204.449L368.639 207.289C368.616 207.324 368.585 207.352 368.548 207.371C368.511 207.391 368.47 207.4 368.429 207.399Z" fill="#B56757"/>
<path d="M369.469 212.629C369.422 212.63 369.376 212.618 369.336 212.595C369.295 212.572 369.262 212.539 369.239 212.499C369.221 212.469 369.21 212.435 369.205 212.401C369.201 212.366 369.203 212.331 369.212 212.297C369.222 212.264 369.238 212.233 369.259 212.205C369.281 212.178 369.308 212.155 369.339 212.139C370.779 211.309 374.629 208.989 375.149 208.309C375.799 207.459 378.829 201.509 378.859 201.449C378.893 201.387 378.949 201.341 379.015 201.318C379.082 201.296 379.155 201.3 379.219 201.329C379.28 201.363 379.326 201.419 379.347 201.486C379.367 201.554 379.361 201.626 379.329 201.689C379.209 201.929 376.249 207.689 375.569 208.629C374.889 209.569 370.139 212.279 369.569 212.629C369.536 212.635 369.502 212.635 369.469 212.629Z" fill="#B56757"/>
<path d="M297.149 286.149C297.078 286.178 296.999 286.178 296.929 286.149C296.855 286.108 296.799 286.041 296.773 285.961C296.747 285.882 296.753 285.795 296.789 285.719L305.299 269.219C305.317 269.18 305.342 269.145 305.374 269.116C305.406 269.087 305.444 269.065 305.484 269.05C305.525 269.036 305.568 269.031 305.611 269.034C305.654 269.036 305.696 269.048 305.734 269.068C305.773 269.087 305.807 269.114 305.834 269.147C305.862 269.18 305.883 269.218 305.895 269.26C305.908 269.301 305.912 269.344 305.907 269.387C305.903 269.43 305.89 269.471 305.869 269.509L297.359 286.009C297.336 286.046 297.305 286.078 297.269 286.102C297.233 286.126 297.192 286.142 297.149 286.149Z" fill="#B56757"/>
<path d="M265.819 188.049C286.759 185.379 291.819 190.559 294.619 198.049C297.419 205.539 310.859 250.709 310.859 250.709C310.859 250.709 320.679 226.819 323.109 224.999C325.539 223.179 345.109 230.389 346.589 234.359C348.069 238.329 331.319 291.849 325.099 302.619C318.879 313.389 301.169 317.289 293.099 303.959C285.029 290.629 274.459 255.039 274.459 255.039L265.819 188.049Z" fill="#7EC1AE"/>
<path d="M94.0087 159.629L174.329 128.099C175.406 127.602 176.57 127.323 177.754 127.276C178.939 127.23 180.122 127.417 181.234 127.828C182.347 128.238 183.367 128.864 184.238 129.668C185.109 130.473 185.812 131.442 186.309 132.519C186.805 133.596 187.084 134.76 187.131 135.944C187.178 137.129 186.99 138.312 186.58 139.424C186.169 140.537 185.544 141.557 184.739 142.428C183.934 143.299 182.965 144.002 181.889 144.499L105.749 185.099C102.461 186.852 98.6122 187.227 95.0481 186.142C91.4839 185.057 88.4967 182.601 86.7437 179.314C84.9906 176.026 84.6152 172.177 85.7001 168.613C86.785 165.049 89.2413 162.062 92.5287 160.309C93.0087 160.059 93.5087 159.829 94.0087 159.629Z" fill="#EFAD9C"/>
<path d="M172.789 143.169C172.789 143.169 187.609 164.339 190.309 164.479C193.009 164.619 186.309 148.559 186.309 148.559C186.309 148.559 227.059 141.829 227.009 139.449C226.959 137.069 208.939 139.259 208.939 139.259C208.939 139.259 228.609 134.179 228.059 131.799C227.559 129.639 206.809 133.709 206.809 133.709C206.809 133.709 226.699 126.239 225.049 124.709C223.399 123.179 204.829 128.569 204.829 128.569C204.829 128.569 219.929 120.569 218.729 119.669C217.529 118.769 200.729 123.889 200.729 123.889C192.379 125.019 182.439 125.459 178.589 126.499C163.229 130.679 172.789 143.169 172.789 143.169Z" fill="#EFAD9C"/>
<path d="M84.4087 173.309C84.3183 171.021 84.7903 168.746 85.7835 166.683C86.7767 164.62 88.2606 162.832 90.1053 161.476C91.95 160.12 94.0992 159.237 96.3645 158.904C98.6298 158.572 100.942 158.8 103.099 159.569L195.249 192.119C196.985 192.733 198.584 193.683 199.954 194.914C201.323 196.146 202.437 197.636 203.231 199.298C204.025 200.96 204.484 202.762 204.581 204.602C204.678 206.441 204.413 208.282 203.799 210.019C203.185 211.755 202.235 213.354 201.003 214.724C199.771 216.093 198.282 217.207 196.619 218.001C194.957 218.795 193.155 219.254 191.316 219.351C189.476 219.448 187.635 219.183 185.899 218.569L93.7487 186.019C91.095 185.084 88.7845 183.371 87.1184 181.104C85.4524 178.837 84.5081 176.12 84.4087 173.309Z" fill="#EFAD9C"/>
<path d="M112.099 180.569C112.101 180.471 112.14 180.378 112.209 180.309L125.659 168.789C125.719 168.729 125.799 168.696 125.884 168.696C125.968 168.696 126.049 168.729 126.109 168.789C126.166 168.85 126.197 168.93 126.197 169.014C126.197 169.097 126.166 169.178 126.109 169.239L112.669 180.769C112.609 180.828 112.528 180.861 112.444 180.861C112.359 180.861 112.279 180.828 112.219 180.769C112.156 180.719 112.113 180.648 112.099 180.569Z" fill="#B56757"/>
<path d="M196.459 186.749L140.679 170.469C140.679 170.469 168.099 156.569 169.399 153.899C170.699 151.229 163.029 134.239 157.639 132.799C152.249 131.359 97.6387 153.369 86.8887 160.629C76.1387 167.889 81.5087 183.319 91.9987 188.049C102.489 192.779 191.339 228.719 191.339 228.719L196.459 186.749Z" fill="#7EC1AE"/>
<path d="M182.939 252.999C178.889 285.089 175.209 333.059 174.069 372.099C210.033 375.315 246.233 374.829 282.099 370.649C279.099 336.759 278.199 289.649 281.279 252.699L265.779 188.049L225.619 191.859L196.419 186.749L182.939 252.999Z" fill="#E2817F"/>
<path d="M258.899 239.739C235.926 245.438 211.869 245.093 189.069 238.739C186.449 238.009 185.329 242.079 187.949 242.809C206.186 247.864 225.249 249.224 244.019 246.809C249.404 246.11 254.746 245.109 260.019 243.809C262.659 243.149 261.539 239.089 258.899 239.739Z" fill="#D35D57"/>
<path d="M258.899 250.429C241.079 254.831 222.56 255.627 204.429 252.769C199.26 251.937 194.143 250.819 189.099 249.419C186.479 248.689 185.359 252.759 187.979 253.479C206.216 258.533 225.279 259.893 244.049 257.479C249.434 256.78 254.776 255.779 260.049 254.479C262.659 253.849 261.539 249.779 258.899 250.429Z" fill="#D35D57"/>
<path d="M258.899 261.129C241.079 265.526 222.56 266.321 204.429 263.469C199.26 262.634 194.142 261.512 189.099 260.109C186.479 259.389 185.359 263.449 187.979 264.179C211.518 270.689 236.337 271.034 260.049 265.179C262.659 264.569 261.539 260.479 258.899 261.129Z" fill="#D35D57"/>
<path d="M192.549 361.569C192.549 361.569 192.969 373.749 192.009 374.739C191.049 375.729 171.009 374.609 170.139 373.399C169.269 372.189 169.799 361.919 169.799 361.919L192.549 361.569Z" fill="#488974"/>
<path d="M208.509 188.859C196.909 259.139 195.099 361.569 193.619 363.319C192.139 365.069 171.689 365.739 169.259 363.319C166.829 360.899 180.359 238.319 184.349 223.879C188.339 209.439 196.459 186.749 196.459 186.749L208.509 188.859Z" fill="#7EC1AE"/>
<path d="M208.509 188.859C206.069 205.119 202.869 229.439 202.869 229.439C188.559 210.589 203.229 187.939 203.229 187.939L208.509 188.859Z" fill="#A4D8C8"/>
<path d="M289.389 361.369L249.679 363.369C249.679 363.369 250.149 374.129 251.429 375.009C252.709 375.889 287.169 375.559 288.649 374.169C290.129 372.779 289.389 361.369 289.389 361.369Z" fill="#488974"/>
<path d="M247.809 189.759C234.809 300.989 245.039 362.379 247.729 364.259C250.419 366.139 288.919 366.259 290.939 363.049C292.959 359.839 283.669 313.519 282.999 300.459C282.329 287.399 282.139 249.879 282.139 249.879L266.869 187.879L247.809 189.759Z" fill="#7EC1AE"/>
<path d="M267.099 241.619C265.788 242.445 264.243 242.821 262.699 242.689C261.081 242.454 259.564 241.76 258.329 240.689C256.079 239.059 252.709 237.379 250.329 239.829C249.389 240.829 250.879 242.299 251.819 241.319C252.759 240.339 254.159 240.649 255.209 241.169C256.669 241.909 257.839 243.109 259.299 243.839C260.69 244.522 262.232 244.84 263.781 244.763C265.329 244.686 266.832 244.216 268.149 243.399C269.349 242.719 268.289 240.899 267.099 241.619Z" fill="white"/>
<path d="M267.099 246.689C265.788 247.515 264.243 247.891 262.699 247.759C261.087 247.535 259.572 246.859 258.329 245.809C256.079 244.169 252.709 242.489 250.329 244.939C249.389 245.939 250.879 247.409 251.819 246.429C252.759 245.449 254.159 245.759 255.209 246.279C256.669 247.019 257.839 248.219 259.299 248.949C260.69 249.632 262.232 249.95 263.781 249.873C265.329 249.796 266.832 249.326 268.149 248.509C269.349 247.789 268.289 245.969 267.099 246.689Z" fill="white"/>
<path d="M254.099 189.149L247.809 189.759C247.069 197.279 243.929 229.439 243.929 229.439C243.929 229.439 262.359 211.219 254.099 189.149Z" fill="#A4D8C8"/>
<path d="M184.099 224.229C184.029 224.229 183.962 224.202 183.911 224.153C183.861 224.105 183.831 224.039 183.829 223.969C183.569 211.734 186.761 199.673 193.039 189.169C193.076 189.111 193.134 189.069 193.201 189.052C193.268 189.035 193.339 189.045 193.399 189.079C193.458 189.118 193.5 189.177 193.516 189.246C193.533 189.315 193.523 189.387 193.489 189.449C187.262 199.865 184.097 211.826 184.359 223.959C184.362 223.994 184.357 224.03 184.345 224.063C184.333 224.096 184.314 224.127 184.29 224.152C184.265 224.178 184.235 224.198 184.202 224.211C184.169 224.224 184.134 224.23 184.099 224.229Z" fill="#488974"/>
<path d="M280.519 275.319C280.46 275.317 280.403 275.297 280.356 275.261C280.31 275.225 280.275 275.175 280.259 275.119C272.937 249.467 270.582 222.654 273.319 196.119C273.327 196.05 273.362 195.987 273.416 195.944C273.47 195.901 273.54 195.881 273.609 195.889C273.678 195.897 273.741 195.932 273.784 195.986C273.827 196.04 273.847 196.11 273.839 196.179C271.113 222.65 273.465 249.399 280.769 274.989C280.787 275.055 280.779 275.126 280.745 275.186C280.711 275.246 280.655 275.29 280.589 275.309L280.519 275.319Z" fill="#488974"/>
<path d="M312.959 275.569C312.887 275.569 312.818 275.54 312.768 275.49C312.717 275.439 312.689 275.37 312.689 275.299C312.72 267.465 312.077 259.643 310.769 251.919C310.763 251.885 310.764 251.85 310.772 251.816C310.78 251.782 310.795 251.75 310.815 251.722C310.836 251.694 310.862 251.671 310.892 251.653C310.921 251.635 310.954 251.624 310.989 251.619C311.022 251.611 311.057 251.611 311.091 251.618C311.124 251.625 311.156 251.639 311.184 251.658C311.213 251.678 311.236 251.703 311.254 251.733C311.272 251.762 311.284 251.795 311.289 251.829C312.601 259.583 313.247 267.435 313.219 275.299C313.219 275.369 313.192 275.436 313.143 275.486C313.095 275.537 313.029 275.566 312.959 275.569Z" fill="#488974"/>
<path d="M138.869 170.409H138.819C131.409 168.769 123.904 167.59 116.349 166.879C116.315 166.875 116.281 166.865 116.251 166.849C116.221 166.833 116.194 166.811 116.172 166.785C116.15 166.758 116.134 166.728 116.124 166.695C116.114 166.662 116.11 166.628 116.114 166.594C116.117 166.56 116.127 166.526 116.143 166.496C116.159 166.466 116.181 166.439 116.207 166.417C116.234 166.395 116.264 166.379 116.297 166.369C116.33 166.359 116.365 166.355 116.399 166.359C123.974 167.07 131.499 168.249 138.929 169.889C138.962 169.896 138.994 169.909 139.022 169.929C139.05 169.948 139.075 169.973 139.093 170.002C139.112 170.031 139.124 170.063 139.131 170.097C139.137 170.131 139.136 170.165 139.129 170.199C139.117 170.259 139.084 170.313 139.037 170.351C138.989 170.389 138.93 170.41 138.869 170.409Z" fill="#488974"/>
<path d="M129.719 168.509C129.673 168.519 129.625 168.519 129.579 168.509L122.869 164.379C122.838 164.362 122.811 164.34 122.789 164.312C122.768 164.284 122.752 164.253 122.744 164.219C122.735 164.185 122.734 164.149 122.74 164.115C122.746 164.081 122.759 164.048 122.779 164.019C122.797 163.99 122.821 163.965 122.849 163.945C122.877 163.925 122.909 163.911 122.942 163.904C122.976 163.896 123.01 163.896 123.044 163.902C123.078 163.908 123.11 163.92 123.139 163.939L129.859 168.059C129.904 168.091 129.939 168.137 129.957 168.189C129.976 168.242 129.978 168.3 129.962 168.353C129.947 168.407 129.915 168.455 129.872 168.49C129.828 168.525 129.775 168.545 129.719 168.549V168.509Z" fill="#488974"/>
<path d="M316.629 272.979C316.572 272.98 316.516 272.963 316.47 272.931C316.423 272.898 316.388 272.852 316.369 272.799C315.313 269.277 313.951 265.854 312.299 262.569C312.27 262.505 312.266 262.432 312.288 262.365C312.311 262.299 312.357 262.243 312.419 262.209C312.449 262.193 312.483 262.184 312.517 262.182C312.552 262.18 312.586 262.184 312.619 262.196C312.651 262.207 312.681 262.224 312.707 262.247C312.733 262.27 312.754 262.298 312.769 262.329C314.436 265.656 315.812 269.123 316.879 272.689C316.897 272.755 316.889 272.826 316.855 272.886C316.821 272.946 316.765 272.99 316.699 273.009L316.629 272.979Z" fill="#488974"/>
<path d="M241.239 165.259L243.299 194.829C243.299 194.829 226.429 203.229 215.299 196.689L215.689 174.249L241.239 165.259Z" fill="#EFAD9C"/>
<path d="M215.399 188.859C230.229 187.599 235.399 179.509 235.399 179.509L215.489 180.909L215.399 188.859Z" fill="#AD6253"/>
<path d="M245.909 189.939L225.659 191.859L212.609 189.569C212.289 208.489 240.099 208.939 245.909 189.939Z" fill="#EFAD9C"/>
<path d="M242.719 172.569C248.161 169.832 252.425 165.212 254.719 159.569C256.869 154.189 257.319 148.569 257.499 142.749C258.193 142.407 258.769 141.865 259.152 141.193C259.535 140.521 259.708 139.75 259.649 138.979C259.499 137.437 259.033 135.942 258.279 134.589C259.186 134.497 260.039 134.109 260.706 133.486C261.372 132.863 261.816 132.038 261.969 131.139C262.228 129.323 261.876 127.473 260.969 125.879C259.029 122.067 255.706 119.14 251.679 117.699C251.695 114.721 251.089 111.773 249.899 109.043C248.709 106.314 246.962 103.863 244.769 101.849C242.932 100.006 240.59 98.7498 238.039 98.2387C236.768 98.006 235.46 98.0995 234.235 98.5105C233.011 98.9215 231.911 99.6366 231.039 100.589C229.28 98.9764 227.196 97.7606 224.927 97.0235C222.658 96.2865 220.257 96.0454 217.886 96.3165C215.516 96.5877 213.232 97.3648 211.188 98.5953C209.144 99.8257 207.388 101.481 206.039 103.449C203.767 103.215 201.473 103.584 199.389 104.519C197.148 105.379 195.335 107.085 194.339 109.269C193.865 110.361 193.687 111.557 193.82 112.74C193.953 113.923 194.394 115.05 195.099 116.009C192.225 118.473 190.403 121.944 190.009 125.709C189.868 127.508 190.083 129.318 190.642 131.033C191.202 132.749 192.094 134.338 193.269 135.709C194.428 141.804 196.448 147.703 199.269 153.229C206.219 167.509 226.939 170.649 242.719 172.569Z" fill="#162A45"/>
<path d="M211.319 115.989C238.919 112.569 253.409 125.849 251.079 151.639C249.219 172.159 237.299 184.939 217.889 184.999C200.009 185.059 197.109 170.459 196.889 155.159C196.529 133.339 194.919 118.029 211.319 115.989Z" fill="#EFAD9C"/>
<path d="M196.699 127.939C196.804 128.292 196.996 128.614 197.256 128.876C197.515 129.137 197.836 129.331 198.189 129.439C198.898 129.653 199.642 129.724 200.379 129.649C205.201 129.394 209.851 127.775 213.789 124.979C213.502 125.574 213.445 126.255 213.629 126.89C213.814 127.525 214.227 128.07 214.789 128.419C215.951 129.071 217.278 129.373 218.609 129.289C222.859 129.362 227.095 128.781 231.169 127.569C230.479 128.999 231.509 130.789 232.939 131.479C234.438 132.037 236.065 132.155 237.629 131.819C236.937 134.532 237.176 137.398 238.309 139.959C239.366 142.513 241.264 144.63 243.689 145.959C243.325 147.325 243.236 148.749 243.426 150.15C243.616 151.55 244.083 152.899 244.798 154.118C245.513 155.338 246.463 156.403 247.592 157.253C248.722 158.102 250.009 158.72 251.379 159.069C252.169 151.769 252.899 144.409 251.379 137.239C249.859 130.069 246.159 123.139 240.229 118.809C234.999 114.989 228.409 113.449 221.939 113.139C216.519 112.879 210.939 113.449 206.089 115.899C201.239 118.349 195.449 122.659 196.699 127.939Z" fill="#162A45"/>
<path d="M198.099 146.109C198.099 146.109 204.419 143.109 208.729 142.649C205.589 140.189 200.099 143.379 198.099 146.109Z" fill="#162A45"/>
<path d="M230.389 146.299C230.389 146.299 224.189 143.039 219.899 142.439C223.099 140.099 228.489 143.499 230.389 146.299Z" fill="#162A45"/>
<path d="M206.569 154.799C206.487 155.177 206.301 155.525 206.03 155.802C205.759 156.079 205.416 156.273 205.039 156.363C204.662 156.453 204.268 156.434 203.901 156.309C203.535 156.183 203.212 155.957 202.969 155.656C202.725 155.354 202.573 154.99 202.528 154.605C202.483 154.221 202.548 153.831 202.716 153.482C202.883 153.133 203.146 152.839 203.474 152.633C203.802 152.427 204.181 152.318 204.569 152.319C205.16 152.389 205.7 152.688 206.074 153.151C206.447 153.615 206.625 154.206 206.569 154.799Z" fill="#162A45"/>
<path d="M204.559 153.899C204.53 154.018 204.469 154.126 204.382 154.212C204.295 154.298 204.186 154.357 204.066 154.383C203.947 154.41 203.823 154.402 203.707 154.361C203.592 154.32 203.491 154.247 203.416 154.151C203.34 154.055 203.293 153.939 203.28 153.818C203.267 153.696 203.288 153.574 203.342 153.464C203.396 153.354 203.479 153.261 203.583 153.197C203.687 153.132 203.806 153.098 203.929 153.099C204.116 153.126 204.286 153.224 204.403 153.373C204.52 153.522 204.576 153.71 204.559 153.899Z" fill="white"/>
<path d="M226.029 154.799C225.947 155.177 225.761 155.525 225.49 155.802C225.219 156.079 224.876 156.273 224.499 156.363C224.122 156.453 223.728 156.434 223.361 156.309C222.995 156.183 222.672 155.957 222.429 155.656C222.185 155.354 222.033 154.99 221.988 154.605C221.943 154.221 222.008 153.831 222.176 153.482C222.343 153.133 222.606 152.839 222.934 152.633C223.262 152.427 223.641 152.318 224.029 152.319C224.62 152.389 225.16 152.688 225.534 153.151C225.907 153.615 226.085 154.206 226.029 154.799Z" fill="#162A45"/>
<path d="M224.019 153.899C223.99 154.018 223.929 154.126 223.842 154.212C223.755 154.298 223.646 154.357 223.526 154.383C223.407 154.41 223.283 154.402 223.167 154.361C223.052 154.32 222.951 154.247 222.876 154.151C222.8 154.055 222.753 153.939 222.74 153.818C222.727 153.696 222.748 153.574 222.802 153.464C222.856 153.354 222.939 153.261 223.043 153.197C223.147 153.132 223.266 153.098 223.389 153.099C223.577 153.124 223.749 153.221 223.866 153.371C223.984 153.52 224.039 153.71 224.019 153.899Z" fill="white"/>
<path d="M212.169 163.929H212.099C211.615 163.883 211.147 163.731 210.729 163.484C210.31 163.237 209.952 162.901 209.679 162.499C209.519 162.191 209.43 161.852 209.42 161.506C209.409 161.159 209.477 160.815 209.619 160.499C209.902 159.834 210.236 159.192 210.619 158.579C210.999 158.013 211.333 157.418 211.619 156.799C211.683 156.648 211.803 156.528 211.953 156.463C212.104 156.399 212.273 156.394 212.427 156.45C212.581 156.507 212.707 156.62 212.78 156.767C212.853 156.913 212.867 157.082 212.819 157.239C212.513 157.931 212.155 158.6 211.749 159.239C211.391 159.79 211.076 160.368 210.809 160.969C210.739 161.114 210.703 161.273 210.703 161.434C210.703 161.595 210.739 161.753 210.809 161.899C211 162.13 211.235 162.32 211.502 162.457C211.768 162.595 212.06 162.677 212.359 162.699C212.441 162.713 212.519 162.744 212.589 162.789C212.659 162.834 212.719 162.893 212.766 162.962C212.813 163.031 212.845 163.109 212.861 163.191C212.877 163.273 212.876 163.357 212.859 163.439C212.825 163.591 212.736 163.726 212.608 163.817C212.481 163.907 212.324 163.947 212.169 163.929Z" fill="#AD6253"/>
<path d="M220.219 168.189C217.596 167.351 214.794 167.25 212.119 167.899C212.036 167.916 211.958 167.95 211.89 167.999C211.822 168.048 211.765 168.111 211.722 168.184C211.68 168.256 211.653 168.337 211.644 168.42C211.635 168.504 211.643 168.589 211.669 168.669C211.685 168.755 211.719 168.837 211.768 168.909C211.817 168.982 211.881 169.043 211.955 169.09C212.029 169.137 212.112 169.168 212.199 169.182C212.285 169.195 212.374 169.191 212.459 169.169C214.904 168.581 217.464 168.678 219.859 169.449C219.928 169.463 219.999 169.463 220.069 169.449C220.213 169.449 220.352 169.395 220.459 169.299C220.547 169.212 220.612 169.104 220.647 168.985C220.682 168.866 220.686 168.74 220.659 168.619C220.629 168.515 220.573 168.421 220.496 168.345C220.419 168.27 220.323 168.216 220.219 168.189Z" fill="#944A3B"/>
<path d="M246.489 155.459C244.849 159.459 246.029 163.399 248.959 164.589C251.889 165.779 255.579 163.459 257.219 159.409C258.859 155.359 257.809 151.129 254.879 149.939C251.949 148.749 248.099 151.409 246.489 155.459Z" fill="#EFAD9C"/>
<path d="M249.309 160.669C249.16 160.666 249.016 160.611 248.903 160.514C248.79 160.416 248.715 160.283 248.69 160.136C248.665 159.989 248.692 159.838 248.767 159.709C248.842 159.579 248.959 159.48 249.099 159.429C249.468 159.319 249.797 159.104 250.047 158.812C250.297 158.519 250.457 158.16 250.509 157.779C250.502 157.432 250.42 157.091 250.269 156.779C250.098 156.395 249.99 155.987 249.949 155.569C249.929 155.136 249.996 154.704 250.148 154.299C250.299 153.893 250.53 153.522 250.829 153.209C251.168 152.839 251.591 152.555 252.063 152.381C252.534 152.207 253.04 152.148 253.539 152.209C254.231 152.364 254.846 152.759 255.275 153.325C255.703 153.891 255.917 154.59 255.879 155.299C255.89 155.389 255.882 155.48 255.855 155.567C255.829 155.654 255.784 155.734 255.724 155.802C255.664 155.87 255.59 155.925 255.507 155.962C255.424 155.999 255.334 156.019 255.244 156.019C255.153 156.019 255.063 155.999 254.98 155.962C254.898 155.925 254.824 155.87 254.764 155.802C254.704 155.734 254.659 155.654 254.632 155.567C254.605 155.48 254.597 155.389 254.609 155.299C254.639 154.894 254.529 154.492 254.298 154.159C254.066 153.826 253.728 153.582 253.339 153.469C253.04 153.455 252.743 153.507 252.468 153.623C252.193 153.739 251.947 153.915 251.749 154.139C251.57 154.322 251.431 154.54 251.34 154.779C251.248 155.018 251.207 155.273 251.219 155.529C251.262 155.818 251.343 156.1 251.459 156.369C251.676 156.842 251.786 157.358 251.779 157.879C251.712 158.511 251.463 159.111 251.062 159.605C250.661 160.098 250.124 160.464 249.519 160.659C249.45 160.676 249.379 160.68 249.309 160.669Z" fill="#AD6253"/>
</g>
<defs>
<filter id="filter0_d_9_72" x="0.669922" y="0" width="430.66" height="419.919" filterUnits="userSpaceOnUse" color-interpolation-filters="sRGB">
<feFlood flood-opacity="0" result="BackgroundImageFix"/>
<feColorMatrix in="SourceAlpha" type="matrix" values="0 0 0 0 0 0 0 0 0 0 0 0 0 0 0 0 0 0 127 0" result="hardAlpha"/>
<feOffset dy="8"/>
<feGaussianBlur stdDeviation="11"/>
<feComposite in2="hardAlpha" operator="out"/>
<feColorMatrix type="matrix" values="0 0 0 0 0 0 0 0 0 0 0 0 0 0 0 0 0 0 0.34 0"/>
<feBlend mode="normal" in2="BackgroundImageFix" result="effect1_dropShadow_9_72"/>
<feBlend mode="normal" in="SourceGraphic" in2="effect1_dropShadow_9_72" result="shape"/>
</filter>
</defs>
</svg>
