<svg width="1440" height="1193" viewBox="0 0 1440 1193" fill="none" xmlns="http://www.w3.org/2000/svg">
<path d="M960.364 184.464C870.988 287.952 735.16 362.628 723.988 446.712C713.404 530.796 826.888 624.876 955.66 686.616C1084.43 748.356 1228.49 778.344 1343.74 729.54C1458.99 681.324 1545.42 554.904 1536.6 448.476C1527.78 341.46 1423.71 255.024 1340.8 153.3C1257.89 51.576 1196.15 -64.848 1144.41 -57.204C1092.08 -49.56 1049.74 81.564 960.364 184.464Z" fill="#61BFAD" fill-opacity="0.7"/>
<path d="M153.892 336.975C221.929 327.812 309.825 319.941 397.926 318.208C485.623 316.489 573.525 320.908 610.607 329.353C647.689 337.797 633.546 350.234 589.44 361.53C545.737 372.813 471.669 383.016 389.727 387.522C307.787 392.075 217.972 390.932 149.889 386.596C82.2073 382.2 36.2553 374.563 37.1673 365.548C38.0793 356.533 86.2593 346.124 153.892 336.975Z" fill="#61BFAD" fill-opacity="0.7"/>
<path d="M-190.918 620.707C-212.502 637.325 -209.874 679.209 -195.02 710.128C-180.358 741.099 -153.714 760.965 -129.926 780.173C-106.329 799.434 -85.3974 817.984 -57.9309 827.334C-30.4643 836.684 3.67581 836.589 36.4066 823.091C68.9459 809.645 100.215 782.552 92.993 756.951C86.015 731.49 40.7376 707.468 20.2086 676.87C-0.372854 646.081 3.84646 608.906 -8.23112 598.632C-20.3612 588.166 -48.8746 605.037 -86.1091 608.861C-123.482 612.929 -169.333 604.089 -190.918 620.707Z" fill="#61BFAD" fill-opacity="0.7"/>
</svg>
